<svg xmlns="http://www.w3.org/2000/svg" version="1.1" xmlns:xlink="http://www.w3.org/1999/xlink" xmlns:svgjs="http://svgjs.dev/svgjs" width="100%" height="100%" viewBox="0 0 1000 600"><rect width="1000" height="600" x="0" y="0" fill="#3be8ff"/><g><rect width="333.3333333333333" height="333.3333333333333" y="77.77780236138156" fill="#3be8ff" transform="matrix(2.25000013732911,0,0,2.25000013732911,0,-250.00000686645552)" x="55.555564880371094"/><path d="M156.35555282118906 170.48333510858214L156.35555282118906 170.48333510858214L197.07313686580298 171.7241969894598L218.48521862420378 171.3201954468485Q219.09122093812076 174.4367787755645 219.09122093812076 179.63108432342452Q219.09122093812076 184.82538987128456 217.53292927376276 187.10511286173426Q215.97463760940477 189.38483585218393 212.25205196677175 189.38483585218393Q208.50060907109506 189.38483585218393 196.35170553971133 188.34597474261193Q184.20280200832755 187.3071136330399 178.37363689350687 187.3071136330399L178.37363689350687 187.3071136330399L170.89960835519716 187.7399724286949Q170.06274801693084 195.61800250961596 160.91499880208843 238.21130800206822L160.91499880208843 238.21130800206822Q176.72877347001787 236.76844534988487 187.3193853370436 236.76844534988487Q197.9099972040693 236.76844534988487 203.73916231889004 238.4133087733739L203.73916231889004 238.4133087733739Q203.30630352323502 247.15705644560495 199.98771942321335 253.39022310303693L199.98771942321335 253.39022310303693Q191.04197097967662 251.51450165519861 178.80649568916186 251.51450165519861Q166.54216314560347 251.51450165519861 158.02927349772176 252.7553635360763L158.02927349772176 252.7553635360763Q150.3243869350627 290.3563642519742 150.3243869350627 309.8927245625366L150.3243869350627 309.8927245625366L150.3243869350627 313.4421666869076Q142.850358396753 317.5976111251956 118.7545521052912 317.5976111251956L118.7545521052912 317.5976111251956L116.67682988614717 317.5976111251956Q116.67682988614717 303.45755713379896 126.34400965577557 258.78652942220265Q135.9823321723603 214.1155017106064 138.0600543915043 194.57914140004397L138.0600543915043 194.57914140004397Q138.0600543915043 191.26055730002224 135.9823321723603 186.58568230694823Q133.90460995321627 181.91080731387422 131.6248869627666 178.99622475646385L131.6248869627666 178.99622475646385L129.5471647436226 176.0816421990535L130.18202431058324 172.9650588703375Q141.40749574456964 170.68533587988782 156.35555282118906 170.48333510858214ZM276.02658119327543 319.44447531999026L276.02658119327543 319.44447531999026Q264.80110975928903 319.44447531999026 247.57332969221994 315.2890308817023L247.57332969221994 315.2890308817023Q236.75185980084487 318.2036134391126 227.40210981469684 318.2036134391126Q218.05235982854876 318.2036134391126 216.6094971763654 317.5976111251956L216.6094971763654 317.5976111251956Q218.05235982854876 305.1312778103316 228.96040147905484 256.1893766482726Q239.8684431295609 207.24747548621366 239.8684431295609 194.78114217134961L239.8684431295609 194.78114217134961Q239.8684431295609 192.29941840959427 237.1847185964999 188.14397397130625Q234.4721368103952 183.9885295330182 231.78841227733417 181.07394697560787L231.78841227733417 181.07394697560787L229.07583049122948 178.15936441819753L229.71069005819018 175.0427810894815Q256.923079678368 169.44447399901014 288.2909137368339 169.44447399901014L288.2909137368339 169.44447399901014Q305.54755105694665 169.44447399901014 316.6575934787584 177.6399338634115Q327.7676359005701 185.86425098085658 327.7676359005701 200.61030728617033L327.7676359005701 200.61030728617033Q327.7676359005701 229.06355878722582 293.0812177420826 240.08702944990654L293.0812177420826 240.08702944990654Q306.99041370912994 241.76075012643923 316.45559270745264 250.5910695578013Q325.8919144527317 259.42138898916335 325.8919144527317 275.40830717535476L325.8919144527317 275.40830717535476Q325.8919144527317 294.9446674859172 311.7807177143786 307.2090000294756Q297.6406637229819 319.44447531999026 276.02658119327543 319.44447531999026ZM272.3039955506424 245.68533654037793L272.3039955506424 245.68533654037793Q266.47483043582173 245.68533654037793 261.91538445492233 246.72419764994993L261.91538445492233 246.72419764994993Q252.96963601138563 286.2009198136862 250.48791224963028 301.7838364572662L250.48791224963028 301.7838364572662Q255.68221779749032 305.3332785816373 266.7922602193021 305.3332785816373Q277.9023026411138 305.3332785816373 285.80918997507854 296.5029591502752Q293.68722005599955 287.67263971891316 293.68722005599955 271.05086196576104L293.68722005599955 271.05086196576104Q293.68722005599955 245.68533654037793 272.3039955506424 245.68533654037793ZM283.93346852724017 182.31480885648554L283.93346852724017 182.31480885648554Q276.02658119327543 182.31480885648554 274.58371854109214 183.78652876171256L274.58371854109214 183.78652876171256Q271.66913598368177 202.48602873400864 265.0319677836384 232.8150016829025L265.0319677836384 232.8150016829025Q273.34285666021447 232.8150016829025 276.66144076023613 231.7761405733305Q279.9800248602578 230.7372794637585 282.5771776341878 229.06355878722582Q285.17433040811784 227.4186953637368 288.4929145081395 223.86925323936578L288.4929145081395 223.86925323936578Q295.76494227514354 216.1932239297504 295.76494227514354 199.25401639311798Q295.76494227514354 182.31480885648554 283.93346852724017 182.31480885648554Z " fill="#501a83" transform="matrix(2.25000013732911,0,0,2.25000013732911,0,-250.00000686645552)"/><path d="MNaN 244.44447326660003 " fill="#501a83" transform="matrix(2.25000013732911,0,0,2.25000013732911,0,-250.00000686645552)"/></g></svg>